<svg xmlns="http://www.w3.org/2000/svg" xmlns:xlink="http://www.w3.org/1999/xlink" width="500" zoomAndPan="magnify" viewBox="0 0 375 374.999991" height="500" preserveAspectRatio="xMidYMid meet" version="1.0"><defs><g/><clipPath id="34bccdd0d9"><path d="M 149.292969 155.753906 L 227.292969 155.753906 L 227.292969 224.003906 L 149.292969 224.003906 Z M 149.292969 155.753906 " clip-rule="nonzero"/></clipPath></defs><rect x="-37.5" width="450" fill="#ffffff" y="-37.499999" height="449.999989" fill-opacity="1"/><rect x="-37.5" width="450" fill="#fffbf8" y="-37.499999" height="449.999989" fill-opacity="1"/><g fill="#403029" fill-opacity="1"><g transform="translate(94.187618, 201.497221)"><g><path d="M -8.1875 -6.5 C -8.175781 -6.40625 -8.195312 -6.320312 -8.25 -6.25 C -8.300781 -6.1875 -8.375 -6.144531 -8.46875 -6.125 L -8.578125 -6.109375 C -8.742188 -6.085938 -8.875 -6.007812 -8.96875 -5.875 C -9.070312 -5.75 -9.113281 -5.601562 -9.09375 -5.4375 L -8.671875 -2.546875 C -8.648438 -2.378906 -8.570312 -2.25 -8.4375 -2.15625 C -8.3125 -2.0625 -8.164062 -2.023438 -8 -2.046875 L -3.078125 -2.765625 C -2.898438 -2.785156 -2.765625 -2.859375 -2.671875 -2.984375 C -2.578125 -3.109375 -2.539062 -3.253906 -2.5625 -3.421875 L -2.984375 -6.3125 C -3.003906 -6.476562 -3.078125 -6.609375 -3.203125 -6.703125 C -3.328125 -6.804688 -3.476562 -6.847656 -3.65625 -6.828125 L -3.75 -6.8125 C -3.84375 -6.800781 -3.925781 -6.820312 -4 -6.875 C -4.070312 -6.925781 -4.113281 -7 -4.125 -7.09375 L -4.328125 -8.46875 C -4.335938 -8.550781 -4.316406 -8.628906 -4.265625 -8.703125 C -4.210938 -8.785156 -4.140625 -8.832031 -4.046875 -8.84375 L -3.953125 -8.859375 C -3.585938 -8.910156 -3.234375 -8.890625 -2.890625 -8.796875 C -2.554688 -8.703125 -2.253906 -8.550781 -1.984375 -8.34375 C -1.722656 -8.144531 -1.5 -7.894531 -1.3125 -7.59375 C -1.125 -7.300781 -1.003906 -6.972656 -0.953125 -6.609375 L -0.53125 -3.71875 C -0.476562 -3.363281 -0.5 -3.015625 -0.59375 -2.671875 C -0.695312 -2.335938 -0.847656 -2.035156 -1.046875 -1.765625 C -1.242188 -1.492188 -1.488281 -1.265625 -1.78125 -1.078125 C -2.082031 -0.890625 -2.414062 -0.769531 -2.78125 -0.71875 L -7.703125 0 C -8.066406 0.0507812 -8.414062 0.03125 -8.75 -0.0625 C -9.082031 -0.164062 -9.382812 -0.316406 -9.65625 -0.515625 C -9.9375 -0.722656 -10.164062 -0.972656 -10.34375 -1.265625 C -10.519531 -1.566406 -10.632812 -1.894531 -10.6875 -2.25 L -11.109375 -5.140625 C -11.160156 -5.503906 -11.140625 -5.851562 -11.046875 -6.1875 C -10.960938 -6.53125 -10.816406 -6.835938 -10.609375 -7.109375 C -10.398438 -7.378906 -10.148438 -7.601562 -9.859375 -7.78125 C -9.566406 -7.96875 -9.238281 -8.085938 -8.875 -8.140625 L -8.765625 -8.15625 C -8.671875 -8.175781 -8.585938 -8.15625 -8.515625 -8.09375 C -8.441406 -8.03125 -8.398438 -7.957031 -8.390625 -7.875 Z M -8.1875 -6.5 "/></g></g></g><g fill="#403029" fill-opacity="1"><g transform="translate(92.442555, 187.356767)"><g><path d="M 0.078125 -8.875 L 0.015625 -1.875 C 0.015625 -1.78125 -0.015625 -1.703125 -0.078125 -1.640625 C -0.140625 -1.578125 -0.21875 -1.546875 -0.3125 -1.546875 L -9.921875 -1.625 C -10.015625 -1.625 -10.09375 -1.65625 -10.15625 -1.71875 C -10.21875 -1.78125 -10.25 -1.859375 -10.25 -1.953125 L -10.234375 -3.34375 C -10.234375 -3.425781 -10.203125 -3.5 -10.140625 -3.5625 C -10.078125 -3.632812 -10 -3.671875 -9.90625 -3.671875 L -2.015625 -3.609375 L -1.96875 -8.890625 C -1.96875 -8.984375 -1.9375 -9.054688 -1.875 -9.109375 C -1.8125 -9.171875 -1.734375 -9.203125 -1.640625 -9.203125 L -0.25 -9.1875 C -0.15625 -9.1875 -0.078125 -9.15625 -0.015625 -9.09375 C 0.046875 -9.039062 0.078125 -8.96875 0.078125 -8.875 Z M 0.078125 -8.875 "/></g></g></g><g fill="#403029" fill-opacity="1"><g transform="translate(92.84602, 173.114748)"><g><path d="M -9.09375 -8.15625 C -9.082031 -8.25 -9.039062 -8.328125 -8.96875 -8.390625 C -8.894531 -8.460938 -8.8125 -8.507812 -8.71875 -8.53125 L -3.09375 -9.828125 C -3 -9.847656 -2.890625 -9.859375 -2.765625 -9.859375 C -2.640625 -9.859375 -2.535156 -9.847656 -2.453125 -9.828125 L 1.15625 -9.25 C 1.25 -9.238281 1.320312 -9.195312 1.375 -9.125 C 1.425781 -9.050781 1.441406 -8.972656 1.421875 -8.890625 L 1.203125 -7.5 C 1.191406 -7.40625 1.148438 -7.332031 1.078125 -7.28125 C 1.003906 -7.226562 0.921875 -7.207031 0.828125 -7.21875 L -0.859375 -7.5 L -1.515625 -3.4375 L 0.171875 -3.15625 C 0.265625 -3.144531 0.335938 -3.101562 0.390625 -3.03125 C 0.441406 -2.96875 0.460938 -2.890625 0.453125 -2.796875 L 0.234375 -1.421875 C 0.210938 -1.328125 0.164062 -1.253906 0.09375 -1.203125 C 0.0195312 -1.148438 -0.0625 -1.128906 -0.15625 -1.140625 L -3.765625 -1.71875 C -3.847656 -1.738281 -3.945312 -1.769531 -4.0625 -1.8125 C -4.175781 -1.863281 -4.269531 -1.910156 -4.34375 -1.953125 L -9.3125 -4.90625 C -9.382812 -4.945312 -9.441406 -5.015625 -9.484375 -5.109375 C -9.535156 -5.210938 -9.550781 -5.304688 -9.53125 -5.390625 Z M -3.53125 -3.84375 L -2.90625 -7.75 L -7.234375 -6.765625 L -7.34375 -6.109375 Z M -3.53125 -3.84375 "/></g></g></g><g fill="#403029" fill-opacity="1"><g transform="translate(95.388848, 159.095764)"><g><path d="M -5.34375 -11.296875 C -5.25 -11.265625 -5.179688 -11.210938 -5.140625 -11.140625 C -5.109375 -11.066406 -5.109375 -10.984375 -5.140625 -10.890625 L -5.921875 -8.453125 L -0.046875 -6.5625 L 0.734375 -9 C 0.765625 -9.09375 0.816406 -9.15625 0.890625 -9.1875 C 0.972656 -9.226562 1.054688 -9.238281 1.140625 -9.21875 L 2.46875 -8.78125 C 2.5625 -8.757812 2.628906 -8.707031 2.671875 -8.625 C 2.710938 -8.550781 2.71875 -8.46875 2.6875 -8.375 L 0.5 -1.5625 C 0.476562 -1.476562 0.425781 -1.414062 0.34375 -1.375 C 0.269531 -1.332031 0.1875 -1.320312 0.09375 -1.34375 L -1.234375 -1.78125 C -1.316406 -1.800781 -1.378906 -1.851562 -1.421875 -1.9375 C -1.460938 -2.019531 -1.472656 -2.101562 -1.453125 -2.1875 L -0.671875 -4.609375 L -6.546875 -6.5 L -7.328125 -4.078125 C -7.347656 -3.992188 -7.394531 -3.925781 -7.46875 -3.875 C -7.539062 -3.832031 -7.625 -3.828125 -7.71875 -3.859375 L -9.0625 -4.28125 C -9.144531 -4.3125 -9.207031 -4.367188 -9.25 -4.453125 C -9.289062 -4.535156 -9.300781 -4.617188 -9.28125 -4.703125 L -7.09375 -11.515625 C -7.0625 -11.609375 -7.003906 -11.671875 -6.921875 -11.703125 C -6.847656 -11.742188 -6.769531 -11.75 -6.6875 -11.71875 Z M -5.34375 -11.296875 "/></g></g></g><g fill="#403029" fill-opacity="1"><g transform="translate(100.01306, 145.61931)"><g><path d="M 3.8125 -8.34375 C 3.90625 -8.34375 3.96875 -8.3125 4 -8.25 C 4.039062 -8.1875 4.039062 -8.117188 4 -8.046875 L 3.28125 -6.609375 C 3.25 -6.523438 3.1875 -6.457031 3.09375 -6.40625 C 3 -6.351562 2.910156 -6.332031 2.828125 -6.34375 L -1.359375 -6.484375 L -2.265625 -4.671875 L 1.109375 -2.984375 C 1.191406 -2.941406 1.25 -2.878906 1.28125 -2.796875 C 1.3125 -2.710938 1.304688 -2.628906 1.265625 -2.546875 L 0.640625 -1.28125 C 0.597656 -1.195312 0.535156 -1.140625 0.453125 -1.109375 C 0.367188 -1.085938 0.285156 -1.097656 0.203125 -1.140625 L -8.390625 -5.421875 C -8.484375 -5.460938 -8.539062 -5.523438 -8.5625 -5.609375 C -8.59375 -5.691406 -8.585938 -5.773438 -8.546875 -5.859375 L -6.21875 -10.546875 C -6.050781 -10.890625 -5.832031 -11.164062 -5.5625 -11.375 C -5.300781 -11.59375 -5.007812 -11.753906 -4.6875 -11.859375 C -4.363281 -11.972656 -4.023438 -12.023438 -3.671875 -12.015625 C -3.328125 -12.003906 -2.992188 -11.914062 -2.671875 -11.75 L -1.890625 -11.359375 C -1.617188 -11.222656 -1.378906 -11.050781 -1.171875 -10.84375 C -0.972656 -10.632812 -0.8125 -10.40625 -0.6875 -10.15625 C -0.570312 -9.90625 -0.492188 -9.640625 -0.453125 -9.359375 C -0.410156 -9.078125 -0.414062 -8.789062 -0.46875 -8.5 Z M -2.546875 -8.703125 C -2.460938 -8.867188 -2.445312 -9.023438 -2.5 -9.171875 C -2.550781 -9.328125 -2.65625 -9.441406 -2.8125 -9.515625 L -3.59375 -9.90625 C -3.738281 -9.976562 -3.882812 -9.988281 -4.03125 -9.9375 C -4.1875 -9.894531 -4.304688 -9.789062 -4.390625 -9.625 L -5.953125 -6.5 L -4.109375 -5.578125 Z M -2.546875 -8.703125 "/></g></g></g><g fill="#403029" fill-opacity="1"><g transform="translate(106.612265, 132.990512)"><g><path d="M -1.71875 -12.390625 C -1.632812 -12.335938 -1.582031 -12.269531 -1.5625 -12.1875 C -1.550781 -12.101562 -1.578125 -12.023438 -1.640625 -11.953125 L -4.8125 -7.421875 L -3.125 -6.25 L -0.25 -10.359375 C -0.195312 -10.429688 -0.128906 -10.472656 -0.046875 -10.484375 C 0.0351562 -10.503906 0.113281 -10.488281 0.1875 -10.4375 L 1.34375 -9.625 C 1.414062 -9.570312 1.460938 -9.5 1.484375 -9.40625 C 1.503906 -9.320312 1.488281 -9.242188 1.4375 -9.171875 L -1.4375 -5.0625 L 0.234375 -3.875 L 3.40625 -8.40625 C 3.46875 -8.476562 3.539062 -8.519531 3.625 -8.53125 C 3.707031 -8.539062 3.785156 -8.519531 3.859375 -8.46875 L 5 -7.671875 C 5.070312 -7.617188 5.117188 -7.550781 5.140625 -7.46875 C 5.160156 -7.382812 5.140625 -7.304688 5.078125 -7.234375 L 0.90625 -1.296875 C 0.851562 -1.210938 0.78125 -1.160156 0.6875 -1.140625 C 0.601562 -1.128906 0.523438 -1.148438 0.453125 -1.203125 L -7.40625 -6.734375 C -7.488281 -6.785156 -7.535156 -6.851562 -7.546875 -6.9375 C -7.566406 -7.03125 -7.550781 -7.117188 -7.5 -7.203125 L -3.328125 -13.140625 C -3.265625 -13.210938 -3.191406 -13.253906 -3.109375 -13.265625 C -3.023438 -13.273438 -2.941406 -13.253906 -2.859375 -13.203125 Z M -1.71875 -12.390625 "/></g></g></g><g fill="#403029" fill-opacity="1"><g transform="translate(115.029257, 121.512573)"><g/></g></g><g fill="#403029" fill-opacity="1"><g transform="translate(125.076753, 111.431989)"><g><path d="M -0.3125 -12.3125 C -0.375 -12.382812 -0.394531 -12.460938 -0.375 -12.546875 C -0.363281 -12.628906 -0.320312 -12.703125 -0.25 -12.765625 L 0.859375 -13.609375 C 0.929688 -13.660156 1.007812 -13.679688 1.09375 -13.671875 C 1.1875 -13.671875 1.265625 -13.632812 1.328125 -13.5625 L 7.1875 -5.953125 C 7.25 -5.878906 7.269531 -5.796875 7.25 -5.703125 C 7.238281 -5.609375 7.195312 -5.535156 7.125 -5.484375 L 6.015625 -4.640625 C 5.941406 -4.578125 5.859375 -4.550781 5.765625 -4.5625 C 5.679688 -4.582031 5.609375 -4.628906 5.546875 -4.703125 L 3.421875 -7.46875 L -2.09375 -7.875 L 2.296875 -2.1875 C 2.359375 -2.113281 2.382812 -2.03125 2.375 -1.9375 C 2.363281 -1.851562 2.316406 -1.78125 2.234375 -1.71875 L 1.140625 -0.875 C 1.066406 -0.820312 0.984375 -0.800781 0.890625 -0.8125 C 0.804688 -0.820312 0.734375 -0.863281 0.671875 -0.9375 L -5.1875 -8.546875 C -5.25 -8.617188 -5.269531 -8.695312 -5.25 -8.78125 C -5.238281 -8.875 -5.195312 -8.945312 -5.125 -9 L -4.03125 -9.84375 C -3.945312 -9.90625 -3.847656 -9.953125 -3.734375 -9.984375 C -3.628906 -10.023438 -3.53125 -10.035156 -3.4375 -10.015625 L 1.71875 -9.65625 Z M -0.3125 -12.3125 "/></g></g></g><g fill="#403029" fill-opacity="1"><g transform="translate(136.537808, 102.967811)"><g><path d="M 0.8125 -12.1875 C 0.894531 -12.226562 0.984375 -12.242188 1.078125 -12.234375 C 1.179688 -12.222656 1.269531 -12.1875 1.34375 -12.125 L 5.8125 -8.484375 C 5.882812 -8.429688 5.960938 -8.351562 6.046875 -8.25 C 6.128906 -8.15625 6.191406 -8.070312 6.234375 -8 L 8 -4.796875 C 8.039062 -4.722656 8.046875 -4.640625 8.015625 -4.546875 C 7.992188 -4.460938 7.945312 -4.398438 7.875 -4.359375 L 6.640625 -3.671875 C 6.554688 -3.628906 6.472656 -3.617188 6.390625 -3.640625 C 6.304688 -3.671875 6.242188 -3.722656 6.203125 -3.796875 L 5.375 -5.3125 L 1.78125 -3.328125 L 2.609375 -1.8125 C 2.648438 -1.738281 2.65625 -1.65625 2.625 -1.5625 C 2.601562 -1.476562 2.550781 -1.414062 2.46875 -1.375 L 1.265625 -0.703125 C 1.179688 -0.648438 1.09375 -0.632812 1 -0.65625 C 0.914062 -0.6875 0.851562 -0.738281 0.8125 -0.8125 L -0.953125 -4.015625 C -0.992188 -4.085938 -1.03125 -4.1875 -1.0625 -4.3125 C -1.101562 -4.4375 -1.132812 -4.539062 -1.15625 -4.625 L -1.875 -10.359375 C -1.882812 -10.441406 -1.863281 -10.53125 -1.8125 -10.625 C -1.757812 -10.71875 -1.695312 -10.785156 -1.625 -10.828125 Z M 0.84375 -5.140625 L 4.3125 -7.0625 L 0.859375 -9.859375 L 0.28125 -9.546875 Z M 0.84375 -5.140625 "/></g></g></g><g fill="#403029" fill-opacity="1"><g transform="translate(149.142421, 96.325412)"><g><path d="M 1.34375 -0.5 C 1.257812 -0.46875 1.175781 -0.46875 1.09375 -0.5 C 1.019531 -0.539062 0.96875 -0.609375 0.9375 -0.703125 L -2.40625 -9.71875 C -2.4375 -9.800781 -2.429688 -9.878906 -2.390625 -9.953125 C -2.359375 -10.035156 -2.300781 -10.09375 -2.21875 -10.125 L 2.703125 -11.9375 C 3.035156 -12.0625 3.378906 -12.113281 3.734375 -12.09375 C 4.085938 -12.082031 4.421875 -12.003906 4.734375 -11.859375 C 5.046875 -11.722656 5.320312 -11.53125 5.5625 -11.28125 C 5.800781 -11.03125 5.984375 -10.734375 6.109375 -10.390625 L 7.828125 -5.71875 C 7.960938 -5.375 8.019531 -5.023438 8 -4.671875 C 7.976562 -4.328125 7.894531 -4 7.75 -3.6875 C 7.601562 -3.382812 7.398438 -3.109375 7.140625 -2.859375 C 6.890625 -2.617188 6.597656 -2.4375 6.265625 -2.3125 Z M 2.25 -3.015625 L 5.5625 -4.234375 C 5.71875 -4.296875 5.828125 -4.398438 5.890625 -4.546875 C 5.953125 -4.691406 5.953125 -4.84375 5.890625 -5 L 4.171875 -9.671875 C 4.109375 -9.828125 4.003906 -9.9375 3.859375 -10 C 3.722656 -10.070312 3.578125 -10.078125 3.421875 -10.015625 L 0.109375 -8.796875 Z M 2.25 -3.015625 "/></g></g></g><g fill="#403029" fill-opacity="1"><g transform="translate(162.603323, 91.656154)"><g><path d="M 7.21875 -10.203125 C 7.238281 -10.109375 7.222656 -10.023438 7.171875 -9.953125 C 7.117188 -9.878906 7.046875 -9.832031 6.953125 -9.8125 L 4.453125 -9.296875 L 5.703125 -3.25 L 8.203125 -3.765625 C 8.296875 -3.785156 8.378906 -3.773438 8.453125 -3.734375 C 8.523438 -3.691406 8.570312 -3.625 8.59375 -3.53125 L 8.875 -2.171875 C 8.894531 -2.078125 8.878906 -1.988281 8.828125 -1.90625 C 8.773438 -1.832031 8.703125 -1.785156 8.609375 -1.765625 L 1.609375 -0.328125 C 1.523438 -0.316406 1.441406 -0.332031 1.359375 -0.375 C 1.285156 -0.425781 1.238281 -0.5 1.21875 -0.59375 L 0.9375 -1.953125 C 0.914062 -2.046875 0.929688 -2.128906 0.984375 -2.203125 C 1.046875 -2.273438 1.117188 -2.316406 1.203125 -2.328125 L 3.6875 -2.84375 L 2.4375 -8.890625 L -0.046875 -8.375 C -0.128906 -8.363281 -0.207031 -8.378906 -0.28125 -8.421875 C -0.363281 -8.460938 -0.414062 -8.53125 -0.4375 -8.625 L -0.71875 -10 C -0.738281 -10.09375 -0.71875 -10.175781 -0.65625 -10.25 C -0.601562 -10.332031 -0.535156 -10.378906 -0.453125 -10.390625 L 6.546875 -11.828125 C 6.640625 -11.847656 6.722656 -11.832031 6.796875 -11.78125 C 6.867188 -11.738281 6.914062 -11.671875 6.9375 -11.578125 Z M 7.21875 -10.203125 "/></g></g></g><g fill="#403029" fill-opacity="1"><g transform="translate(176.613742, 89.066474)"><g><path d="M 6.734375 -10.296875 C 6.734375 -10.390625 6.757812 -10.46875 6.8125 -10.53125 C 6.875 -10.601562 6.953125 -10.640625 7.046875 -10.640625 L 8.453125 -10.71875 C 8.535156 -10.71875 8.613281 -10.6875 8.6875 -10.625 C 8.757812 -10.570312 8.796875 -10.5 8.796875 -10.40625 L 9.296875 -0.8125 C 9.296875 -0.71875 9.265625 -0.632812 9.203125 -0.5625 C 9.140625 -0.5 9.066406 -0.46875 8.984375 -0.46875 L 7.578125 -0.390625 C 7.484375 -0.390625 7.398438 -0.414062 7.328125 -0.46875 C 7.265625 -0.53125 7.234375 -0.609375 7.234375 -0.703125 L 7.046875 -4.203125 L 2.765625 -7.65625 L 3.140625 -0.484375 C 3.140625 -0.390625 3.109375 -0.3125 3.046875 -0.25 C 2.992188 -0.1875 2.921875 -0.148438 2.828125 -0.140625 L 1.4375 -0.078125 C 1.34375 -0.0664062 1.257812 -0.09375 1.1875 -0.15625 C 1.125 -0.21875 1.09375 -0.296875 1.09375 -0.390625 L 0.59375 -9.984375 C 0.59375 -10.078125 0.617188 -10.15625 0.671875 -10.21875 C 0.734375 -10.28125 0.8125 -10.316406 0.90625 -10.328125 L 2.296875 -10.390625 C 2.390625 -10.398438 2.488281 -10.382812 2.59375 -10.34375 C 2.707031 -10.3125 2.800781 -10.265625 2.875 -10.203125 L 6.90625 -6.953125 Z M 6.734375 -10.296875 "/></g></g></g><g fill="#403029" fill-opacity="1"><g transform="translate(190.854862, 88.61769)"><g><path d="M 9.953125 -7.578125 C 9.941406 -7.484375 9.90625 -7.410156 9.84375 -7.359375 C 9.78125 -7.304688 9.703125 -7.285156 9.609375 -7.296875 L 4.109375 -7.84375 L 3.90625 -5.796875 L 8.890625 -5.296875 C 8.972656 -5.285156 9.046875 -5.242188 9.109375 -5.171875 C 9.171875 -5.109375 9.195312 -5.035156 9.1875 -4.953125 L 9.046875 -3.5625 C 9.035156 -3.46875 8.992188 -3.390625 8.921875 -3.328125 C 8.847656 -3.265625 8.769531 -3.238281 8.6875 -3.25 L 3.703125 -3.75 L 3.5 -1.703125 L 9 -1.15625 C 9.09375 -1.144531 9.164062 -1.101562 9.21875 -1.03125 C 9.269531 -0.96875 9.289062 -0.890625 9.28125 -0.796875 L 9.140625 0.578125 C 9.128906 0.671875 9.09375 0.742188 9.03125 0.796875 C 8.96875 0.859375 8.890625 0.882812 8.796875 0.875 L 1.578125 0.15625 C 1.484375 0.144531 1.40625 0.101562 1.34375 0.03125 C 1.289062 -0.03125 1.269531 -0.109375 1.28125 -0.203125 L 2.234375 -9.765625 C 2.242188 -9.859375 2.28125 -9.929688 2.34375 -9.984375 C 2.414062 -10.046875 2.5 -10.070312 2.59375 -10.0625 L 9.8125 -9.34375 C 9.90625 -9.332031 9.976562 -9.289062 10.03125 -9.21875 C 10.082031 -9.15625 10.101562 -9.078125 10.09375 -8.984375 Z M 9.953125 -7.578125 "/></g></g></g><g fill="#403029" fill-opacity="1"><g transform="translate(204.986853, 90.313366)"><g/></g></g><g fill="#403029" fill-opacity="1"><g transform="translate(218.703053, 94.111412)"><g><path d="M 9.796875 -3.640625 C 9.710938 -3.679688 9.648438 -3.742188 9.609375 -3.828125 C 9.578125 -3.910156 9.582031 -3.992188 9.625 -4.078125 L 9.671875 -4.171875 C 9.734375 -4.328125 9.734375 -4.476562 9.671875 -4.625 C 9.617188 -4.78125 9.507812 -4.890625 9.34375 -4.953125 L 6.640625 -6.109375 C 6.492188 -6.171875 6.347656 -6.171875 6.203125 -6.109375 C 6.054688 -6.046875 5.953125 -5.9375 5.890625 -5.78125 L 5.546875 -4.984375 C 5.472656 -4.828125 5.46875 -4.675781 5.53125 -4.53125 C 5.59375 -4.382812 5.695312 -4.28125 5.84375 -4.21875 L 8.546875 -3.0625 C 8.878906 -2.925781 9.160156 -2.726562 9.390625 -2.46875 C 9.628906 -2.21875 9.8125 -1.9375 9.9375 -1.625 C 10.070312 -1.3125 10.144531 -0.976562 10.15625 -0.625 C 10.164062 -0.269531 10.097656 0.0703125 9.953125 0.40625 L 9.609375 1.1875 C 9.460938 1.539062 9.265625 1.832031 9.015625 2.0625 C 8.765625 2.300781 8.476562 2.484375 8.15625 2.609375 C 7.84375 2.734375 7.507812 2.796875 7.15625 2.796875 C 6.8125 2.804688 6.472656 2.742188 6.140625 2.609375 L 3.4375 1.453125 C 3.113281 1.316406 2.832031 1.117188 2.59375 0.859375 C 2.363281 0.609375 2.179688 0.328125 2.046875 0.015625 C 1.921875 -0.296875 1.851562 -0.625 1.84375 -0.96875 C 1.832031 -1.3125 1.898438 -1.660156 2.046875 -2.015625 L 2.09375 -2.09375 C 2.125 -2.175781 2.179688 -2.234375 2.265625 -2.265625 C 2.347656 -2.304688 2.4375 -2.304688 2.53125 -2.265625 L 3.8125 -1.71875 C 3.894531 -1.6875 3.953125 -1.628906 3.984375 -1.546875 C 4.015625 -1.460938 4.015625 -1.378906 3.984375 -1.296875 L 3.9375 -1.21875 C 3.875 -1.050781 3.867188 -0.894531 3.921875 -0.75 C 3.984375 -0.601562 4.085938 -0.5 4.234375 -0.4375 L 6.9375 0.71875 C 7.101562 0.78125 7.257812 0.78125 7.40625 0.71875 C 7.550781 0.664062 7.65625 0.554688 7.71875 0.390625 L 8.0625 -0.390625 C 8.125 -0.546875 8.125 -0.695312 8.0625 -0.84375 C 8.007812 -0.988281 7.898438 -1.09375 7.734375 -1.15625 L 5.03125 -2.3125 C 4.707031 -2.445312 4.425781 -2.640625 4.1875 -2.890625 C 3.957031 -3.148438 3.773438 -3.4375 3.640625 -3.75 C 3.515625 -4.0625 3.445312 -4.394531 3.4375 -4.75 C 3.4375 -5.101562 3.507812 -5.445312 3.65625 -5.78125 L 4 -6.578125 C 4.132812 -6.910156 4.328125 -7.195312 4.578125 -7.4375 C 4.835938 -7.6875 5.125 -7.875 5.4375 -8 C 5.757812 -8.125 6.09375 -8.1875 6.4375 -8.1875 C 6.789062 -8.195312 7.128906 -8.132812 7.453125 -8 L 10.15625 -6.84375 C 10.488281 -6.707031 10.769531 -6.507812 11 -6.25 C 11.238281 -6 11.421875 -5.71875 11.546875 -5.40625 C 11.679688 -5.09375 11.75 -4.757812 11.75 -4.40625 C 11.757812 -4.050781 11.695312 -3.707031 11.5625 -3.375 L 11.515625 -3.28125 C 11.472656 -3.195312 11.410156 -3.132812 11.328125 -3.09375 C 11.253906 -3.0625 11.175781 -3.0625 11.09375 -3.09375 Z M 9.796875 -3.640625 "/></g></g></g><g fill="#403029" fill-opacity="1"><g transform="translate(231.704554, 99.938813)"><g><path d="M 11.0625 -5.21875 C 11.375 -5.019531 11.628906 -4.773438 11.828125 -4.484375 C 12.023438 -4.203125 12.160156 -3.894531 12.234375 -3.5625 C 12.316406 -3.238281 12.332031 -2.90625 12.28125 -2.5625 C 12.238281 -2.21875 12.125 -1.894531 11.9375 -1.59375 L 9.328125 2.640625 C 9.128906 2.953125 8.882812 3.207031 8.59375 3.40625 C 8.3125 3.601562 8.003906 3.738281 7.671875 3.8125 C 7.347656 3.894531 7.015625 3.910156 6.671875 3.859375 C 6.328125 3.816406 6 3.695312 5.6875 3.5 L 3.1875 1.96875 C 2.882812 1.78125 2.632812 1.539062 2.4375 1.25 C 2.238281 0.96875 2.097656 0.660156 2.015625 0.328125 C 1.929688 -0.00390625 1.910156 -0.34375 1.953125 -0.6875 C 2.003906 -1.03125 2.128906 -1.359375 2.328125 -1.671875 L 4.9375 -5.90625 C 5.125 -6.207031 5.359375 -6.457031 5.640625 -6.65625 C 5.929688 -6.851562 6.242188 -6.988281 6.578125 -7.0625 C 6.910156 -7.132812 7.25 -7.144531 7.59375 -7.09375 C 7.9375 -7.050781 8.257812 -6.9375 8.5625 -6.75 Z M 10.203125 -2.671875 C 10.285156 -2.816406 10.304688 -2.960938 10.265625 -3.109375 C 10.222656 -3.265625 10.128906 -3.390625 9.984375 -3.484375 L 7.484375 -5.015625 C 7.347656 -5.097656 7.203125 -5.125 7.046875 -5.09375 C 6.890625 -5.0625 6.769531 -4.972656 6.6875 -4.828125 L 4.078125 -0.59375 C 3.984375 -0.4375 3.957031 -0.28125 4 -0.125 C 4.039062 0.0195312 4.128906 0.132812 4.265625 0.21875 L 6.765625 1.75 C 6.910156 1.84375 7.0625 1.875 7.21875 1.84375 C 7.375 1.8125 7.5 1.71875 7.59375 1.5625 Z M 10.203125 -2.671875 "/></g></g></g><g fill="#403029" fill-opacity="1"><g transform="translate(243.680672, 107.657014)"><g><path d="M 6.765625 5.734375 L 1.4375 1.21875 C 1.363281 1.15625 1.320312 1.078125 1.3125 0.984375 C 1.3125 0.898438 1.34375 0.820312 1.40625 0.75 L 7.609375 -6.578125 C 7.671875 -6.648438 7.742188 -6.6875 7.828125 -6.6875 C 7.921875 -6.695312 8.003906 -6.671875 8.078125 -6.609375 L 9.125 -5.71875 C 9.1875 -5.664062 9.222656 -5.59375 9.234375 -5.5 C 9.242188 -5.40625 9.21875 -5.320312 9.15625 -5.25 L 4.0625 0.765625 L 8.09375 4.171875 C 8.164062 4.234375 8.203125 4.304688 8.203125 4.390625 C 8.203125 4.472656 8.171875 4.550781 8.109375 4.625 L 7.21875 5.6875 C 7.15625 5.757812 7.082031 5.800781 7 5.8125 C 6.914062 5.820312 6.835938 5.796875 6.765625 5.734375 Z M 6.765625 5.734375 "/></g></g></g><g fill="#403029" fill-opacity="1"><g transform="translate(254.35843, 117.090107)"><g><path d="M 12.5625 1.421875 C 12.488281 1.484375 12.40625 1.507812 12.3125 1.5 C 12.226562 1.488281 12.160156 1.453125 12.109375 1.390625 L 8.421875 -2.828125 L 6.859375 -1.484375 L 10.21875 2.359375 C 10.269531 2.421875 10.289062 2.492188 10.28125 2.578125 C 10.28125 2.671875 10.25 2.742188 10.1875 2.796875 L 9.125 3.734375 C 9.050781 3.785156 8.96875 3.8125 8.875 3.8125 C 8.789062 3.8125 8.722656 3.78125 8.671875 3.71875 L 5.3125 -0.125 L 2.46875 2.34375 C 2.394531 2.40625 2.316406 2.429688 2.234375 2.421875 C 2.148438 2.421875 2.078125 2.382812 2.015625 2.3125 L 1.09375 1.25 C 1.03125 1.1875 1 1.109375 1 1.015625 C 1.007812 0.921875 1.050781 0.84375 1.125 0.78125 L 8.375 -5.53125 C 8.4375 -5.59375 8.515625 -5.613281 8.609375 -5.59375 C 8.703125 -5.582031 8.78125 -5.546875 8.84375 -5.484375 L 13.65625 0.046875 C 13.707031 0.109375 13.726562 0.179688 13.71875 0.265625 C 13.71875 0.359375 13.6875 0.4375 13.625 0.5 Z M 12.5625 1.421875 "/></g></g></g><g fill="#403029" fill-opacity="1"><g transform="translate(263.492651, 128.028654)"><g/></g></g><g fill="#403029" fill-opacity="1"><g transform="translate(99.361882, 243.438814)"><g><path d="M 0.90625 1.03125 L 9.234375 -4.25 C 9.273438 -4.28125 9.320312 -4.285156 9.375 -4.265625 C 9.4375 -4.242188 9.484375 -4.210938 9.515625 -4.171875 L 12.359375 0.3125 C 12.515625 0.5625 12.613281 0.828125 12.65625 1.109375 C 12.707031 1.398438 12.703125 1.679688 12.640625 1.953125 C 12.578125 2.234375 12.460938 2.492188 12.296875 2.734375 C 12.140625 2.984375 11.9375 3.1875 11.6875 3.34375 L 6.703125 6.5 C 6.453125 6.664062 6.179688 6.769531 5.890625 6.8125 C 5.597656 6.851562 5.316406 6.835938 5.046875 6.765625 C 4.785156 6.703125 4.53125 6.585938 4.28125 6.421875 C 4.039062 6.265625 3.84375 6.0625 3.6875 5.8125 L 0.84375 1.328125 C 0.8125 1.285156 0.800781 1.234375 0.8125 1.171875 C 0.832031 1.109375 0.863281 1.0625 0.90625 1.03125 Z M 2.3125 1.5 L 4.65625 5.203125 C 4.8125 5.441406 5.03125 5.59375 5.3125 5.65625 C 5.59375 5.726562 5.851562 5.6875 6.09375 5.53125 L 11.078125 2.375 C 11.316406 2.21875 11.46875 1.992188 11.53125 1.703125 C 11.59375 1.421875 11.546875 1.160156 11.390625 0.921875 L 9.046875 -2.78125 Z M 2.3125 1.5 "/></g></g></g><g fill="#403029" fill-opacity="1"><g transform="translate(108.051675, 256.406265)"><g><path d="M 1.1875 1.046875 L 1.71875 0.578125 C 1.757812 0.546875 1.8125 0.523438 1.875 0.515625 C 1.9375 0.515625 1.988281 0.539062 2.03125 0.59375 L 3.921875 2.765625 L 9.9375 -2.484375 L 8.046875 -4.65625 C 7.953125 -4.757812 7.960938 -4.859375 8.078125 -4.953125 L 8.625 -5.421875 C 8.71875 -5.503906 8.8125 -5.492188 8.90625 -5.390625 L 13.421875 -0.203125 C 13.503906 -0.0976562 13.5 -0.00390625 13.40625 0.078125 L 12.859375 0.546875 C 12.742188 0.640625 12.644531 0.632812 12.5625 0.53125 L 10.6875 -1.625 L 4.671875 3.625 L 6.546875 5.78125 C 6.578125 5.820312 6.585938 5.875 6.578125 5.9375 C 6.566406 6 6.539062 6.046875 6.5 6.078125 L 5.96875 6.546875 C 5.863281 6.640625 5.769531 6.632812 5.6875 6.53125 L 1.171875 1.34375 C 1.078125 1.238281 1.082031 1.140625 1.1875 1.046875 Z M 1.1875 1.046875 "/></g></g></g><g fill="#403029" fill-opacity="1"><g transform="translate(118.593749, 267.921496)"><g><path d="M 10.4375 1.390625 C 10.488281 1.429688 10.515625 1.476562 10.515625 1.53125 C 10.515625 1.59375 10.503906 1.644531 10.484375 1.6875 L 8.34375 4.203125 C 8.144531 4.429688 7.910156 4.613281 7.640625 4.75 C 7.378906 4.882812 7.109375 4.957031 6.828125 4.96875 C 6.554688 4.976562 6.28125 4.941406 6 4.859375 C 5.726562 4.773438 5.476562 4.640625 5.25 4.453125 L 2.703125 2.296875 C 2.472656 2.097656 2.296875 1.867188 2.171875 1.609375 C 2.046875 1.359375 1.96875 1.09375 1.9375 0.8125 C 1.90625 0.53125 1.929688 0.25 2.015625 -0.03125 C 2.109375 -0.3125 2.253906 -0.566406 2.453125 -0.796875 L 6.25 -5.28125 C 6.445312 -5.507812 6.675781 -5.6875 6.9375 -5.8125 C 7.195312 -5.945312 7.46875 -6.019531 7.75 -6.03125 C 8.039062 -6.050781 8.320312 -6.019531 8.59375 -5.9375 C 8.863281 -5.863281 9.113281 -5.726562 9.34375 -5.53125 L 11.890625 -3.375 C 12.117188 -3.1875 12.296875 -2.960938 12.421875 -2.703125 C 12.554688 -2.441406 12.632812 -2.171875 12.65625 -1.890625 C 12.6875 -1.617188 12.660156 -1.34375 12.578125 -1.0625 C 12.492188 -0.78125 12.351562 -0.523438 12.15625 -0.296875 L 11.703125 0.234375 C 11.609375 0.335938 11.503906 0.34375 11.390625 0.25 L 10.84375 -0.21875 C 10.738281 -0.300781 10.734375 -0.394531 10.828125 -0.5 L 11.28125 -1.03125 C 11.46875 -1.257812 11.546875 -1.515625 11.515625 -1.796875 C 11.492188 -2.078125 11.375 -2.3125 11.15625 -2.5 L 8.609375 -4.65625 C 8.390625 -4.84375 8.132812 -4.925781 7.84375 -4.90625 C 7.550781 -4.894531 7.3125 -4.773438 7.125 -4.546875 L 3.328125 -0.0625 C 3.128906 0.164062 3.039062 0.421875 3.0625 0.703125 C 3.09375 0.992188 3.21875 1.234375 3.4375 1.421875 L 5.984375 3.578125 C 6.203125 3.765625 6.453125 3.847656 6.734375 3.828125 C 7.023438 3.816406 7.269531 3.695312 7.46875 3.46875 L 9 1.65625 L 7.140625 0.0625 C 7.097656 0.03125 7.070312 -0.015625 7.0625 -0.078125 C 7.050781 -0.140625 7.066406 -0.191406 7.109375 -0.234375 L 7.578125 -0.78125 C 7.597656 -0.820312 7.640625 -0.84375 7.703125 -0.84375 C 7.773438 -0.84375 7.832031 -0.828125 7.875 -0.796875 Z M 10.4375 1.390625 "/></g></g></g><g fill="#403029" fill-opacity="1"><g transform="translate(130.737189, 277.702203)"><g><path d="M 1.453125 0.65625 L 1.828125 0.046875 C 1.859375 0.00390625 1.898438 -0.0234375 1.953125 -0.046875 C 2.003906 -0.0664062 2.054688 -0.0625 2.109375 -0.03125 L 4.5625 1.46875 L 8.75 -5.328125 L 6.296875 -6.828125 C 6.179688 -6.898438 6.164062 -7 6.25 -7.125 L 6.625 -7.734375 C 6.695312 -7.847656 6.789062 -7.867188 6.90625 -7.796875 L 12.765625 -4.1875 C 12.878906 -4.125 12.898438 -4.035156 12.828125 -3.921875 L 12.453125 -3.3125 C 12.367188 -3.1875 12.269531 -3.15625 12.15625 -3.21875 L 9.71875 -4.71875 L 5.53125 2.078125 L 7.96875 3.578125 C 8.007812 3.597656 8.035156 3.640625 8.046875 3.703125 C 8.066406 3.765625 8.0625 3.816406 8.03125 3.859375 L 7.65625 4.46875 C 7.582031 4.582031 7.488281 4.609375 7.375 4.546875 L 1.515625 0.9375 C 1.398438 0.863281 1.378906 0.769531 1.453125 0.65625 Z M 1.453125 0.65625 "/></g></g></g><g fill="#403029" fill-opacity="1"><g transform="translate(144.22734, 285.556047)"><g><path d="M 4.359375 1.625 L 7.84375 -6.59375 L 5.03125 -7.78125 C 4.894531 -7.84375 4.859375 -7.941406 4.921875 -8.078125 L 5.1875 -8.734375 C 5.25 -8.859375 5.347656 -8.890625 5.484375 -8.828125 L 12.171875 -6 C 12.304688 -5.9375 12.34375 -5.84375 12.28125 -5.71875 L 12.015625 -5.0625 C 11.953125 -4.925781 11.851562 -4.890625 11.71875 -4.953125 L 8.90625 -6.140625 L 5.421875 2.078125 C 5.398438 2.128906 5.359375 2.160156 5.296875 2.171875 C 5.234375 2.191406 5.179688 2.191406 5.140625 2.171875 L 4.46875 1.890625 C 4.34375 1.835938 4.304688 1.75 4.359375 1.625 Z M 4.359375 1.625 "/></g></g></g><g fill="#403029" fill-opacity="1"><g transform="translate(158.746056, 291.289664)"><g><path d="M 8.953125 -8.3125 C 9.015625 -8.300781 9.066406 -8.269531 9.109375 -8.21875 C 9.148438 -8.164062 9.175781 -8.113281 9.1875 -8.0625 L 9.90625 -2.484375 C 9.914062 -2.429688 9.914062 -2.363281 9.90625 -2.28125 C 9.90625 -2.195312 9.898438 -2.125 9.890625 -2.0625 L 8.828125 2.046875 C 8.796875 2.179688 8.707031 2.226562 8.5625 2.1875 L 7.890625 2.015625 C 7.753906 1.984375 7.703125 1.898438 7.734375 1.765625 L 8.421875 -0.921875 L 3.15625 -2.265625 L 2.46875 0.421875 C 2.4375 0.554688 2.351562 0.601562 2.21875 0.5625 L 1.53125 0.390625 C 1.382812 0.359375 1.328125 0.273438 1.359375 0.140625 L 2.421875 -3.96875 C 2.429688 -4.03125 2.453125 -4.097656 2.484375 -4.171875 C 2.523438 -4.253906 2.5625 -4.3125 2.59375 -4.34375 L 5.90625 -8.890625 C 5.9375 -8.941406 5.988281 -8.976562 6.0625 -9 C 6.132812 -9.019531 6.1875 -9.023438 6.21875 -9.015625 Z M 8.703125 -2 L 8.796875 -2.34375 L 8.140625 -7.34375 L 6.5 -7.765625 L 3.53125 -3.6875 L 3.4375 -3.34375 Z M 8.703125 -2 "/></g></g></g><g fill="#403029" fill-opacity="1"><g transform="translate(173.962425, 294.772326)"><g><path d="M 2.96875 -10.03125 L 3.6875 -9.953125 C 3.832031 -9.941406 3.898438 -9.867188 3.890625 -9.734375 L 3 -0.859375 L 8.8125 -0.28125 C 8.875 -0.269531 8.921875 -0.238281 8.953125 -0.1875 C 8.992188 -0.132812 9.015625 -0.0820312 9.015625 -0.03125 L 8.9375 0.6875 C 8.925781 0.820312 8.847656 0.878906 8.703125 0.859375 L 1.953125 0.1875 C 1.910156 0.1875 1.867188 0.160156 1.828125 0.109375 C 1.785156 0.0664062 1.765625 0.0195312 1.765625 -0.03125 L 2.75 -9.84375 C 2.75 -9.90625 2.773438 -9.953125 2.828125 -9.984375 C 2.878906 -10.015625 2.925781 -10.03125 2.96875 -10.03125 Z M 2.96875 -10.03125 "/></g></g></g><g fill="#403029" fill-opacity="1"><g transform="translate(189.529565, 295.925567)"><g/></g></g><g fill="#403029" fill-opacity="1"><g transform="translate(205.077261, 294.723153)"><g><path d="M 7.515625 -7.359375 C 7.578125 -7.378906 7.632812 -7.367188 7.6875 -7.328125 C 7.738281 -7.296875 7.769531 -7.257812 7.78125 -7.21875 L 8.453125 -3.96875 C 8.515625 -3.675781 8.515625 -3.382812 8.453125 -3.09375 C 8.398438 -2.8125 8.289062 -2.554688 8.125 -2.328125 C 7.96875 -2.097656 7.769531 -1.898438 7.53125 -1.734375 C 7.289062 -1.566406 7.03125 -1.453125 6.75 -1.390625 L 3.46875 -0.71875 C 3.175781 -0.65625 2.890625 -0.65625 2.609375 -0.71875 C 2.335938 -0.78125 2.082031 -0.882812 1.84375 -1.03125 C 1.601562 -1.175781 1.398438 -1.367188 1.234375 -1.609375 C 1.066406 -1.859375 0.953125 -2.128906 0.890625 -2.421875 L -0.296875 -8.1875 C -0.359375 -8.488281 -0.359375 -8.78125 -0.296875 -9.0625 C -0.234375 -9.34375 -0.125 -9.597656 0.03125 -9.828125 C 0.1875 -10.066406 0.378906 -10.265625 0.609375 -10.421875 C 0.847656 -10.585938 1.113281 -10.703125 1.40625 -10.765625 L 4.6875 -11.4375 C 4.96875 -11.5 5.25 -11.5 5.53125 -11.4375 C 5.8125 -11.382812 6.066406 -11.285156 6.296875 -11.140625 C 6.535156 -10.992188 6.738281 -10.800781 6.90625 -10.5625 C 7.082031 -10.320312 7.203125 -10.050781 7.265625 -9.75 L 7.40625 -9.0625 C 7.425781 -8.9375 7.363281 -8.859375 7.21875 -8.828125 L 6.515625 -8.6875 C 6.390625 -8.65625 6.316406 -8.703125 6.296875 -8.828125 L 6.15625 -9.515625 C 6.082031 -9.804688 5.921875 -10.023438 5.671875 -10.171875 C 5.429688 -10.328125 5.175781 -10.378906 4.90625 -10.328125 L 1.625 -9.65625 C 1.34375 -9.59375 1.125 -9.441406 0.96875 -9.203125 C 0.8125 -8.960938 0.765625 -8.695312 0.828125 -8.40625 L 2.015625 -2.640625 C 2.066406 -2.359375 2.210938 -2.132812 2.453125 -1.96875 C 2.691406 -1.8125 2.953125 -1.765625 3.234375 -1.828125 L 6.515625 -2.5 C 6.785156 -2.550781 7.003906 -2.695312 7.171875 -2.9375 C 7.335938 -3.1875 7.394531 -3.453125 7.34375 -3.734375 L 6.859375 -6.0625 L 4.453125 -5.578125 C 4.398438 -5.566406 4.347656 -5.578125 4.296875 -5.609375 C 4.242188 -5.640625 4.207031 -5.6875 4.1875 -5.75 L 4.046875 -6.453125 C 4.035156 -6.492188 4.046875 -6.539062 4.078125 -6.59375 C 4.117188 -6.644531 4.164062 -6.675781 4.21875 -6.6875 Z M 7.515625 -7.359375 "/></g></g></g><g fill="#403029" fill-opacity="1"><g transform="translate(220.267311, 291.19624)"><g><path d="M 1.4375 -0.75 L -1.96875 -10 C -2.019531 -10.125 -1.984375 -10.207031 -1.859375 -10.25 L 4.671875 -12.671875 C 4.804688 -12.722656 4.898438 -12.6875 4.953125 -12.5625 L 5.203125 -11.890625 C 5.253906 -11.753906 5.210938 -11.660156 5.078125 -11.609375 L -0.609375 -9.5 L 0.5625 -6.28125 L 5.5 -8.109375 C 5.539062 -8.128906 5.59375 -8.125 5.65625 -8.09375 C 5.71875 -8.070312 5.753906 -8.039062 5.765625 -8 L 6.015625 -7.328125 C 6.035156 -7.265625 6.03125 -7.207031 6 -7.15625 C 5.976562 -7.101562 5.945312 -7.066406 5.90625 -7.046875 L 0.96875 -5.21875 L 2.15625 -2 L 7.84375 -4.109375 C 7.90625 -4.128906 7.960938 -4.125 8.015625 -4.09375 C 8.066406 -4.070312 8.101562 -4.035156 8.125 -3.984375 L 8.359375 -3.3125 C 8.410156 -3.1875 8.367188 -3.097656 8.234375 -3.046875 L 1.703125 -0.625 C 1.578125 -0.582031 1.488281 -0.625 1.4375 -0.75 Z M 1.4375 -0.75 "/></g></g></g><g fill="#403029" fill-opacity="1"><g transform="translate(234.754969, 285.425829)"><g><path d="M 0.125 -2.578125 L -0.203125 -3.171875 C -0.222656 -3.210938 -0.222656 -3.257812 -0.203125 -3.3125 C -0.179688 -3.375 -0.148438 -3.421875 -0.109375 -3.453125 L 0.53125 -3.796875 C 0.570312 -3.828125 0.617188 -3.832031 0.671875 -3.8125 C 0.734375 -3.789062 0.773438 -3.757812 0.796875 -3.71875 L 1.125 -3.125 C 1.269531 -2.863281 1.476562 -2.691406 1.75 -2.609375 C 2.03125 -2.535156 2.300781 -2.570312 2.5625 -2.71875 L 5.484375 -4.328125 C 5.734375 -4.460938 5.898438 -4.671875 5.984375 -4.953125 C 6.066406 -5.234375 6.035156 -5.503906 5.890625 -5.765625 L 5.25 -6.921875 C 5.113281 -7.171875 4.90625 -7.332031 4.625 -7.40625 C 4.34375 -7.488281 4.078125 -7.460938 3.828125 -7.328125 L 0.90625 -5.71875 C 0.632812 -5.570312 0.359375 -5.484375 0.078125 -5.453125 C -0.203125 -5.429688 -0.476562 -5.457031 -0.75 -5.53125 C -1.03125 -5.601562 -1.285156 -5.726562 -1.515625 -5.90625 C -1.742188 -6.082031 -1.929688 -6.300781 -2.078125 -6.5625 L -2.71875 -7.71875 C -2.863281 -7.988281 -2.953125 -8.265625 -2.984375 -8.546875 C -3.015625 -8.835938 -2.984375 -9.117188 -2.890625 -9.390625 C -2.804688 -9.671875 -2.679688 -9.921875 -2.515625 -10.140625 C -2.347656 -10.367188 -2.128906 -10.554688 -1.859375 -10.703125 L 1.0625 -12.3125 C 1.3125 -12.457031 1.582031 -12.546875 1.875 -12.578125 C 2.164062 -12.609375 2.445312 -12.582031 2.71875 -12.5 C 2.988281 -12.414062 3.238281 -12.285156 3.46875 -12.109375 C 3.695312 -11.941406 3.882812 -11.722656 4.03125 -11.453125 L 4.359375 -10.859375 C 4.421875 -10.742188 4.390625 -10.648438 4.265625 -10.578125 L 3.640625 -10.234375 C 3.523438 -10.171875 3.4375 -10.195312 3.375 -10.3125 L 3.046875 -10.90625 C 2.898438 -11.164062 2.6875 -11.332031 2.40625 -11.40625 C 2.125 -11.476562 1.859375 -11.445312 1.609375 -11.3125 L -1.3125 -9.703125 C -1.570312 -9.554688 -1.738281 -9.34375 -1.8125 -9.0625 C -1.894531 -8.789062 -1.863281 -8.523438 -1.71875 -8.265625 L -1.078125 -7.109375 C -0.929688 -6.859375 -0.722656 -6.691406 -0.453125 -6.609375 C -0.179688 -6.523438 0.0820312 -6.554688 0.34375 -6.703125 L 3.265625 -8.3125 C 3.515625 -8.457031 3.785156 -8.546875 4.078125 -8.578125 C 4.367188 -8.609375 4.648438 -8.582031 4.921875 -8.5 C 5.191406 -8.425781 5.441406 -8.300781 5.671875 -8.125 C 5.898438 -7.945312 6.085938 -7.726562 6.234375 -7.46875 L 6.875 -6.3125 C 7.019531 -6.039062 7.109375 -5.757812 7.140625 -5.46875 C 7.171875 -5.175781 7.144531 -4.894531 7.0625 -4.625 C 6.976562 -4.363281 6.847656 -4.117188 6.671875 -3.890625 C 6.492188 -3.660156 6.28125 -3.472656 6.03125 -3.328125 L 3.109375 -1.71875 C 2.835938 -1.570312 2.5625 -1.484375 2.28125 -1.453125 C 2 -1.429688 1.71875 -1.457031 1.4375 -1.53125 C 1.164062 -1.601562 0.914062 -1.726562 0.6875 -1.90625 C 0.457031 -2.082031 0.269531 -2.304688 0.125 -2.578125 Z M 0.125 -2.578125 "/></g></g></g><g fill="#403029" fill-opacity="1"><g transform="translate(248.222458, 277.533185)"><g><path d="M 3.5625 -3 L -1.875 -10.078125 L -4.296875 -8.203125 C -4.410156 -8.117188 -4.515625 -8.132812 -4.609375 -8.25 L -5.046875 -8.8125 C -5.128906 -8.925781 -5.113281 -9.023438 -5 -9.109375 L 0.75 -13.546875 C 0.863281 -13.628906 0.960938 -13.613281 1.046875 -13.5 L 1.484375 -12.9375 C 1.578125 -12.820312 1.566406 -12.722656 1.453125 -12.640625 L -0.96875 -10.765625 L 4.46875 -3.6875 C 4.5 -3.644531 4.507812 -3.59375 4.5 -3.53125 C 4.488281 -3.476562 4.460938 -3.4375 4.421875 -3.40625 L 3.84375 -2.96875 C 3.738281 -2.882812 3.644531 -2.894531 3.5625 -3 Z M 3.5625 -3 "/></g></g></g><g fill="#403029" fill-opacity="1"><g transform="translate(260.348334, 267.703128)"><g><path d="M -2.859375 -11.875 C -2.804688 -11.914062 -2.75 -11.941406 -2.6875 -11.953125 C -2.625 -11.972656 -2.5625 -11.972656 -2.5 -11.953125 L 2.703125 -9.84375 C 2.742188 -9.832031 2.800781 -9.800781 2.875 -9.75 C 2.945312 -9.707031 3.003906 -9.664062 3.046875 -9.625 L 6.125 -6.6875 C 6.21875 -6.59375 6.210938 -6.492188 6.109375 -6.390625 L 5.625 -5.875 C 5.53125 -5.78125 5.4375 -5.78125 5.34375 -5.875 L 3.328125 -7.796875 L -0.421875 -3.875 L 1.59375 -1.953125 C 1.6875 -1.859375 1.6875 -1.757812 1.59375 -1.65625 L 1.09375 -1.140625 C 0.988281 -1.035156 0.890625 -1.03125 0.796875 -1.125 L -2.28125 -4.0625 C -2.320312 -4.101562 -2.367188 -4.15625 -2.421875 -4.21875 C -2.472656 -4.289062 -2.503906 -4.347656 -2.515625 -4.390625 L -4.84375 -9.515625 C -4.875 -9.554688 -4.878906 -9.613281 -4.859375 -9.6875 C -4.847656 -9.757812 -4.828125 -9.8125 -4.796875 -9.84375 Z M 2.53125 -8.5625 L 2.265625 -8.8125 L -2.40625 -10.6875 L -3.5625 -9.46875 L -1.484375 -4.890625 L -1.21875 -4.640625 Z M 2.53125 -8.5625 "/></g></g></g><g fill="#403029" fill-opacity="1"><g transform="translate(270.856265, 256.159679)"><g><path d="M -7.28125 -7.515625 L -6.859375 -8.109375 C -6.773438 -8.222656 -6.675781 -8.238281 -6.5625 -8.15625 L 0.734375 -3.03125 L 4.09375 -7.8125 C 4.125 -7.863281 4.171875 -7.894531 4.234375 -7.90625 C 4.304688 -7.914062 4.363281 -7.90625 4.40625 -7.875 L 4.984375 -7.453125 C 5.097656 -7.378906 5.113281 -7.28125 5.03125 -7.15625 L 1.125 -1.609375 C 1.101562 -1.578125 1.0625 -1.550781 1 -1.53125 C 0.9375 -1.519531 0.882812 -1.523438 0.84375 -1.546875 L -7.21875 -7.21875 C -7.269531 -7.257812 -7.296875 -7.3125 -7.296875 -7.375 C -7.304688 -7.4375 -7.300781 -7.484375 -7.28125 -7.515625 Z M -7.28125 -7.515625 "/></g></g></g><g fill="#403029" fill-opacity="1"><g transform="translate(279.506757, 243.165972)"><g><path d="M 1.890625 -4.265625 L -6.09375 -8.234375 L -7.46875 -5.484375 C -7.53125 -5.359375 -7.625 -5.328125 -7.75 -5.390625 L -8.40625 -5.71875 C -8.519531 -5.769531 -8.546875 -5.859375 -8.484375 -5.984375 L -5.25 -12.5 C -5.175781 -12.625 -5.082031 -12.660156 -4.96875 -12.609375 L -4.3125 -12.28125 C -4.1875 -12.21875 -4.160156 -12.125 -4.234375 -12 L -5.59375 -9.25 L 2.390625 -5.28125 C 2.441406 -5.257812 2.472656 -5.21875 2.484375 -5.15625 C 2.503906 -5.09375 2.503906 -5.039062 2.484375 -5 L 2.15625 -4.34375 C 2.101562 -4.226562 2.015625 -4.203125 1.890625 -4.265625 Z M 1.890625 -4.265625 "/></g></g></g><g fill="#403029" fill-opacity="1"><g transform="translate(286.099433, 229.015776)"><g><path d="M 0.296875 -1.59375 L -9.09375 -4.609375 C -9.226562 -4.648438 -9.273438 -4.734375 -9.234375 -4.859375 L -7.09375 -11.5 C -7.050781 -11.632812 -6.960938 -11.679688 -6.828125 -11.640625 L -6.140625 -11.421875 C -6.003906 -11.367188 -5.957031 -11.273438 -6 -11.140625 L -7.859375 -5.375 L -4.609375 -4.328125 L -3 -9.34375 C -2.988281 -9.375 -2.953125 -9.40625 -2.890625 -9.4375 C -2.828125 -9.476562 -2.773438 -9.488281 -2.734375 -9.46875 L -2.046875 -9.25 C -1.992188 -9.238281 -1.953125 -9.203125 -1.921875 -9.140625 C -1.898438 -9.078125 -1.894531 -9.03125 -1.90625 -9 L -3.515625 -3.984375 L -0.265625 -2.9375 L 1.59375 -8.703125 C 1.601562 -8.765625 1.640625 -8.804688 1.703125 -8.828125 C 1.765625 -8.859375 1.820312 -8.863281 1.875 -8.84375 L 2.5625 -8.625 C 2.6875 -8.582031 2.726562 -8.492188 2.6875 -8.359375 L 0.546875 -1.71875 C 0.503906 -1.59375 0.421875 -1.550781 0.296875 -1.59375 Z M 0.296875 -1.59375 "/></g></g></g><g fill="#403029" fill-opacity="1"><g transform="translate(290.490255, 214.053921)"><g><path d="M 1.03125 -7.59375 L -3.59375 -6.34375 L -4.109375 -3.1875 L 0.1875 -2.5 C 0.320312 -2.476562 0.378906 -2.398438 0.359375 -2.265625 L 0.25 -1.578125 C 0.226562 -1.429688 0.148438 -1.367188 0.015625 -1.390625 L -9.71875 -2.953125 C -9.851562 -2.972656 -9.910156 -3.054688 -9.890625 -3.203125 L -9.046875 -8.421875 C -9.003906 -8.710938 -8.90625 -8.976562 -8.75 -9.21875 C -8.59375 -9.46875 -8.394531 -9.675781 -8.15625 -9.84375 C -7.925781 -10.019531 -7.671875 -10.144531 -7.390625 -10.21875 C -7.117188 -10.289062 -6.832031 -10.300781 -6.53125 -10.25 L -5.234375 -10.03125 C -4.742188 -9.957031 -4.332031 -9.738281 -4 -9.375 C -3.664062 -9.019531 -3.46875 -8.601562 -3.40625 -8.125 L -3.328125 -7.59375 L 1.21875 -8.8125 C 1.269531 -8.832031 1.3125 -8.828125 1.34375 -8.796875 C 1.382812 -8.765625 1.398438 -8.71875 1.390625 -8.65625 L 1.265625 -7.859375 C 1.253906 -7.796875 1.222656 -7.734375 1.171875 -7.671875 C 1.117188 -7.617188 1.070312 -7.59375 1.03125 -7.59375 Z M -5.234375 -3.375 L -4.53125 -7.703125 C -4.488281 -7.984375 -4.550781 -8.242188 -4.71875 -8.484375 C -4.882812 -8.722656 -5.113281 -8.863281 -5.40625 -8.90625 L -6.703125 -9.125 C -6.992188 -9.164062 -7.257812 -9.097656 -7.5 -8.921875 C -7.738281 -8.753906 -7.878906 -8.53125 -7.921875 -8.25 L -8.625 -3.921875 Z M -5.234375 -3.375 "/></g></g></g><g fill="#403029" fill-opacity="1"><g transform="translate(292.578525, 198.584398)"><g><path d="M -0.1875 -1.578125 L -0.90625 -1.578125 C -0.957031 -1.585938 -1.003906 -1.609375 -1.046875 -1.640625 C -1.097656 -1.679688 -1.125 -1.734375 -1.125 -1.796875 L -1.109375 -4.671875 L -9.09375 -4.734375 L -9.109375 -1.859375 C -9.109375 -1.722656 -9.179688 -1.65625 -9.328125 -1.65625 L -10.046875 -1.65625 C -10.179688 -1.65625 -10.25 -1.722656 -10.25 -1.859375 L -10.203125 -8.734375 C -10.191406 -8.867188 -10.117188 -8.9375 -9.984375 -8.9375 L -9.265625 -8.9375 C -9.117188 -8.9375 -9.050781 -8.867188 -9.0625 -8.734375 L -9.078125 -5.875 L -1.09375 -5.8125 L -1.078125 -8.671875 C -1.066406 -8.722656 -1.035156 -8.769531 -0.984375 -8.8125 C -0.941406 -8.851562 -0.894531 -8.867188 -0.84375 -8.859375 L -0.125 -8.859375 C 0.0078125 -8.859375 0.0703125 -8.789062 0.0625 -8.65625 L 0.015625 -1.78125 C 0.015625 -1.644531 -0.0507812 -1.578125 -0.1875 -1.578125 Z M -0.1875 -1.578125 "/></g></g></g><g fill="#403029" fill-opacity="1"><g transform="translate(292.314262, 182.976794)"><g><path d="M -1.328125 -7.828125 L -5.578125 -7.21875 L -9.265625 -1.1875 L -0.5625 -2.4375 C -0.425781 -2.457031 -0.347656 -2.398438 -0.328125 -2.265625 L -0.21875 -1.5625 C -0.21875 -1.507812 -0.234375 -1.457031 -0.265625 -1.40625 C -0.296875 -1.351562 -0.335938 -1.320312 -0.390625 -1.3125 L -10.140625 0.09375 C -10.203125 0.101562 -10.253906 0.0859375 -10.296875 0.046875 C -10.347656 0.00390625 -10.375 -0.0390625 -10.375 -0.09375 L -10.53125 -1.078125 C -10.539062 -1.210938 -10.515625 -1.347656 -10.453125 -1.484375 L -7.078125 -7 L -11.078125 -6.421875 C -11.210938 -6.398438 -11.289062 -6.457031 -11.3125 -6.59375 L -11.421875 -7.296875 C -11.441406 -7.441406 -11.382812 -7.523438 -11.25 -7.546875 L -1.5 -8.953125 C -1.363281 -8.972656 -1.285156 -8.910156 -1.265625 -8.765625 L -1.15625 -8.0625 C -1.132812 -7.925781 -1.191406 -7.847656 -1.328125 -7.828125 Z M -1.328125 -7.828125 "/></g></g></g><g clip-path="url(#34bccdd0d9)"><path fill="#403029" d="M 152.945312 189.914062 L 170.617188 207.585938 L 168.785156 209.417969 L 149.292969 189.914062 L 168.792969 170.410156 L 170.625 172.242188 Z M 194.394531 155.777344 L 196.832031 156.390625 L 182.199219 224.039062 L 179.765625 223.425781 Z M 207.800781 170.410156 L 227.304688 189.914062 L 207.800781 209.417969 L 205.96875 207.585938 L 223.640625 189.914062 L 205.96875 172.242188 Z M 207.800781 170.410156 " fill-opacity="1" fill-rule="nonzero"/></g></svg>